<svg xmlns="http://www.w3.org/2000/svg" xmlns:xlink="http://www.w3.org/1999/xlink" preserveAspectRatio="xMidYMid" width="18" height="18" viewBox="0 0 36 36">
  <defs>
    <style>
      .cls-1 {
        fill: #007fe0;
        fill-rule: evenodd;
      }
    </style>
  </defs>
  <path d="M36.000,18.009 C36.000,8.068 27.941,0.009 18.000,0.009 C8.059,0.009 -0.000,8.068 -0.000,18.009 C-0.000,27.951 8.059,36.009 18.000,36.009 C21.627,36.009 24.998,34.927 27.824,33.081 L27.234,31.311 C24.613,33.134 21.434,34.209 18.000,34.209 C9.053,34.209 1.800,26.956 1.800,18.009 C1.800,9.062 9.053,1.809 18.000,1.809 C26.947,1.809 34.200,9.062 34.200,18.009 C34.200,23.184 30.785,25.209 27.000,25.209 C25.837,25.209 25.279,24.696 24.776,23.932 C24.274,23.168 24.023,22.029 24.023,20.516 L24.023,19.861 L24.496,9.733 C22.371,9.136 20.319,8.838 18.338,8.838 C15.552,8.838 13.295,9.773 11.565,11.643 C9.835,13.513 8.970,15.918 8.970,18.857 C8.970,21.389 9.551,23.357 10.714,24.761 C11.877,26.166 13.521,26.868 15.646,26.868 C17.196,26.868 18.553,26.501 19.716,25.766 C20.879,25.031 21.769,23.936 22.386,22.481 L22.472,22.481 C22.601,23.834 23.064,24.904 23.861,25.689 C24.658,26.475 25.609,27.009 27.000,27.009 C31.025,27.009 36.000,24.703 36.000,18.009 ZM13.083,12.821 C14.346,11.330 16.048,10.584 18.187,10.584 C19.823,10.584 21.209,10.781 22.343,11.173 L21.998,17.526 C21.740,22.561 19.780,25.078 16.119,25.078 C14.411,25.078 13.162,24.554 12.372,23.507 C11.583,22.459 11.188,20.894 11.188,18.813 C11.188,16.311 11.820,14.313 13.083,12.821 Z" class="cls-1"/>
</svg>
