<?xml version="1.0" encoding="UTF-8"?>
<svg width="18px" height="18px" viewBox="0 0 18 18" version="1.1" xmlns="http://www.w3.org/2000/svg" xmlns:xlink="http://www.w3.org/1999/xlink">
    <!-- Generator: Sketch 42 (36781) - http://www.bohemiancoding.com/sketch -->
    <title>icn-search-dark</title>
    <desc>Created with Sketch.</desc>
    <defs></defs>
    <g id="Page-1" stroke="none" stroke-width="1" fill="none" fill-rule="evenodd">
        <g id="icn-search-dark" fill="#fff">
            <path d="M10.7971989,14.4056022 C9.15205913,14.4056022 7.64097149,13.8478853 6.42799978,12.9200245 L1.34802423,18 L0,16.6514756 L5.07997555,11.5715 C4.15211471,10.3590285 3.59439782,8.84744067 3.59439782,7.20280109 C3.59439782,3.22475407 6.81915189,0 10.7971989,0 C14.7752459,0 18,3.22475407 18,7.20280109 C18,11.1808481 14.7752459,14.4056022 10.7971989,14.4056022 Z M10.7971989,0.900350136 C7.31634525,0.900350136 4.49474796,3.72194742 4.49474796,7.20280109 C4.49474796,10.6836548 7.31634525,13.505252 10.7971989,13.505252 C14.2780526,13.505252 17.0996499,10.6836548 17.0996499,7.20280109 C17.0996499,3.72194742 14.2780526,0.900350136 10.7971989,0.900350136 Z" id="Shape" transform="translate(9.000000, 9.000000) scale(-1, 1) translate(-9.000000, -9.000000) "></path>
        </g>
    </g>
</svg>
