<svg xmlns="http://www.w3.org/2000/svg" xmlns:xlink="http://www.w3.org/1999/xlink" preserveAspectRatio="xMidYMid" width="15" height="3" viewBox="0 0 30 6">
  <defs>
    <style>
      .cls-1 {
        fill: #fff;
        fill-rule: evenodd;
      }
    </style>
  </defs>
  <path d="M26.990,5.993 C25.335,5.993 23.993,4.651 23.993,2.996 C23.993,1.341 25.335,-0.000 26.990,-0.000 C28.645,-0.000 29.986,1.341 29.986,2.996 C29.986,4.651 28.645,5.993 26.990,5.993 ZM14.990,5.993 C13.335,5.993 11.993,4.651 11.993,2.996 C11.993,1.341 13.335,-0.000 14.990,-0.000 C16.645,-0.000 17.986,1.341 17.986,2.996 C17.986,4.651 16.645,5.993 14.990,5.993 ZM2.990,5.993 C1.335,5.993 -0.007,4.651 -0.007,2.996 C-0.007,1.341 1.335,-0.000 2.990,-0.000 C4.645,-0.000 5.986,1.341 5.986,2.996 C5.986,4.651 4.645,5.993 2.990,5.993 Z" class="cls-1"/>
</svg>
