<svg 
 xmlns="http://www.w3.org/2000/svg"
 xmlns:xlink="http://www.w3.org/1999/xlink"
 width="18px" height="14px">
<path fill-rule="evenodd"  fill="rgb(255, 255, 255)"
 d="M15.631,13.742 L15.609,13.733 C15.446,13.894 15.221,13.994 14.972,13.994 C14.474,13.994 14.204,13.596 14.204,13.104 C14.204,13.094 14.212,13.081 14.226,13.066 L14.212,13.061 C15.692,11.420 16.586,9.288 16.586,6.957 C16.586,4.654 15.713,2.545 14.264,0.912 L14.291,0.901 C14.290,0.897 14.289,0.894 14.289,0.890 C14.289,0.399 14.556,0.001 15.054,0.001 C15.290,0.001 15.504,0.091 15.665,0.238 L15.678,0.232 C17.135,2.091 18.002,4.424 18.002,6.957 C18.002,9.517 17.116,11.873 15.631,13.742 ZM13.683,11.503 C13.649,11.572 13.607,11.636 13.558,11.694 C13.549,11.707 13.541,11.719 13.533,11.732 L13.527,11.729 C13.366,11.901 13.140,12.009 12.891,12.009 C12.399,12.009 12.001,11.594 12.001,11.082 C12.001,11.069 12.012,11.053 12.031,11.035 L12.017,11.030 C12.947,9.910 13.502,8.494 13.502,6.955 C13.502,5.444 12.967,4.053 12.069,2.943 L12.096,2.931 C12.092,2.924 12.089,2.918 12.089,2.912 C12.089,2.400 12.480,1.986 12.972,1.986 C13.371,1.986 13.709,2.259 13.822,2.636 C14.565,3.893 14.995,5.371 14.995,6.955 C14.995,8.636 14.512,10.199 13.683,11.503 ZM8.998,8.988 C7.896,8.988 7.003,8.097 7.003,6.998 C7.003,5.899 7.896,5.008 8.998,5.008 C10.100,5.008 10.993,5.899 10.993,6.998 C10.993,8.097 10.100,8.988 8.998,8.988 ZM5.104,12.009 C4.855,12.009 4.630,11.901 4.468,11.729 L4.463,11.732 C4.454,11.719 4.446,11.707 4.438,11.694 C4.389,11.636 4.346,11.572 4.312,11.503 C3.483,10.199 3.001,8.636 3.001,6.955 C3.001,5.371 3.431,3.893 4.174,2.636 C4.286,2.259 4.624,1.986 5.024,1.986 C5.515,1.986 5.906,2.400 5.906,2.912 C5.906,2.918 5.904,2.924 5.899,2.931 L5.927,2.943 C5.029,4.053 4.494,5.444 4.494,6.955 C4.494,8.494 5.049,9.910 5.978,11.030 L5.965,11.035 C5.984,11.053 5.994,11.069 5.994,11.082 C5.994,11.594 5.596,12.009 5.104,12.009 ZM1.409,6.957 C1.409,9.288 2.304,11.420 3.783,13.061 L3.770,13.066 C3.784,13.081 3.792,13.094 3.792,13.104 C3.792,13.596 3.521,13.994 3.024,13.994 C2.775,13.994 2.549,13.894 2.386,13.733 L2.364,13.742 C0.879,11.873 -0.006,9.517 -0.006,6.957 C-0.006,4.424 0.861,2.091 2.318,0.232 L2.331,0.238 C2.492,0.091 2.706,0.001 2.942,0.001 C3.439,0.001 3.706,0.399 3.706,0.890 C3.706,0.894 3.706,0.897 3.704,0.901 L3.731,0.912 C2.283,2.545 1.409,4.654 1.409,6.957 Z"/>
</svg>