<svg width="12px" height="12px" viewBox="0 0 12 12" version="1.1" xmlns="http://www.w3.org/2000/svg" xmlns:xlink="http://www.w3.org/1999/xlink">
    <path d="M4.76336923,4.09957267 C4.62812147,4.33099375 4.40562927,4.49843053 4.14580916,4.56431824 L1.76149936,5.16895475 L3.37981652,7.165273 C3.54020912,7.36312957 3.61905933,7.61473231 3.60027745,7.86874068 L3.41126238,10.4250024 L5.60281657,9.47369419 C5.8568544,9.36342163 6.14524682,9.36343584 6.39927379,9.47373341 L8.59012927,10.4249948 L8.40170514,7.86850485 C8.3829941,7.61463829 8.46180204,7.3631918 8.62206513,7.16541902 L10.2398144,5.16903433 L7.85519084,4.56431824 C7.59530102,4.49841285 7.3727622,4.33090485 7.23752616,4.09939362 L6.00079447,1.98222676 L4.76336923,4.09957267 Z M6.001,0 L8.101,3.595 L12.001,4.584 L9.399,7.795 L9.709,12.001 L6.001,10.391 L2.292,12.001 L2.603,7.795 L0,4.584 L3.9,3.595 L6.001,0 Z" id="Shape" stroke="none" fill-opacity="0.5" fill="#2A2A2A" fill-rule="nonzero"></path>
</svg>
