<svg width="4px" height="16px" viewBox="5 -7 4 16" version="1.1" xmlns="http://www.w3.org/2000/svg" xmlns:xlink="http://www.w3.org/1999/xlink">
    <path d="M13.4946504,2.99719935 C12.6669573,2.99719935 11.9958007,2.32604274 11.9958007,1.49834961 C11.9958007,0.670656487 12.6669573,0 13.4946504,0 C14.3223435,0 14.993,0.670656487 14.993,1.49834961 C14.993,2.32604274 14.3223435,2.99719935 13.4946504,2.99719935 Z M7.49325006,2.99719935 C6.66555693,2.99719935 5.99440033,2.32604274 5.99440033,1.49834961 C5.99440033,0.670656487 6.66555693,0 7.49325006,0 C8.32094319,0 8.99159967,0.670656487 8.99159967,1.49834961 C8.99159967,2.32604274 8.32094319,2.99719935 7.49325006,2.99719935 Z M1.49184973,2.99719935 C0.664156603,2.99719935 -0.007,2.32604274 -0.007,1.49834961 C-0.007,0.670656487 0.664156603,0 1.49184973,0 C2.31954286,0 2.99019935,0.670656487 2.99019935,1.49834961 C2.99019935,2.32604274 2.31954286,2.99719935 1.49184973,2.99719935 Z" id="Shape" stroke="none" fill="#fcda00" fill-rule="evenodd" transform="translate(7.493000, 1.498600) rotate(90.000000) translate(-7.493000, -1.498600) "></path>
</svg>
