<svg xmlns="http://www.w3.org/2000/svg" xmlns:xlink="http://www.w3.org/1999/xlink" preserveAspectRatio="xMidYMid" width="18.44" height="19" viewBox="0 0 36.88 38">
  <defs>
    <style>
      .cls-1 {
        stroke: #fff;
        stroke-width: 2px;
        fill: none;
        fill-rule: evenodd;
      }
    </style>
  </defs>
  <path d="M30.912,17.484 C30.973,17.983 31.027,18.484 31.027,18.999 C31.027,19.515 30.973,20.016 30.912,20.516 L35.890,24.775 L32.166,31.225 L25.978,29.039 C25.169,29.647 24.302,30.182 23.359,30.583 L22.163,36.999 L14.715,36.999 L13.521,30.583 C12.577,30.183 11.710,29.647 10.901,29.039 L4.713,31.224 L0.989,24.774 L5.967,20.516 C5.906,20.017 5.852,19.515 5.852,18.999 C5.852,18.484 5.906,17.983 5.967,17.483 L0.989,13.225 L4.713,6.775 L10.900,8.960 C11.709,8.351 12.577,7.816 13.521,7.415 L14.715,0.999 L22.163,0.999 L23.359,7.415 C24.302,7.816 25.170,8.352 25.979,8.960 L32.166,6.774 L35.890,13.224 L30.912,17.484 ZM18.440,15.411 C16.445,15.411 14.828,17.017 14.828,19.000 C14.828,20.982 16.445,22.588 18.440,22.588 C20.434,22.588 22.051,20.982 22.051,19.000 C22.051,17.017 20.434,15.411 18.440,15.411 Z" class="cls-1"/>
</svg>
