<svg
 xmlns="http://www.w3.org/2000/svg"
 xmlns:xlink="http://www.w3.org/1999/xlink"
 width="18px" height="18px">
<path fill-rule="evenodd"  fill="#000"
 d="M15.000,6.000 C14.104,6.000 13.309,5.599 12.759,4.976 L5.821,8.016 C5.929,8.326 6.000,8.653 6.000,9.000 C6.000,9.346 5.929,9.674 5.821,9.984 L12.759,13.024 C13.309,12.401 14.104,12.000 15.000,12.000 C16.657,12.000 18.000,13.343 18.000,15.000 C18.000,16.657 16.657,18.000 15.000,18.000 C13.343,18.000 12.000,16.657 12.000,15.000 C12.000,14.803 12.022,14.610 12.058,14.423 L4.927,11.282 C4.405,11.723 3.738,12.000 3.000,12.000 C1.343,12.000 -0.000,10.657 -0.000,9.000 C-0.000,7.343 1.343,6.000 3.000,6.000 C3.738,6.000 4.405,6.277 4.927,6.718 L12.058,3.576 C12.022,3.390 12.000,3.197 12.000,3.000 C12.000,1.343 13.343,-0.000 15.000,-0.000 C16.657,-0.000 18.000,1.343 18.000,3.000 C18.000,4.657 16.657,6.000 15.000,6.000 Z"/>
</svg>
