<svg xmlns="http://www.w3.org/2000/svg" xmlns:xlink="http://www.w3.org/1999/xlink" preserveAspectRatio="xMidYMid" width="18.015" height="18" viewBox="0 0 36.03 36">
  <defs>
    <style>
      .cls-1 {
        fill: #fff;
        fill-rule: evenodd;
      }
    </style>
  </defs>
  <path d="M34.961,35.150 C32.742,35.588 31.973,36.011 29.710,36.011 C27.447,36.011 26.677,35.588 24.459,35.150 C23.809,35.035 23.399,34.753 23.399,34.162 L23.410,28.033 C23.410,27.468 23.931,27.009 24.575,27.009 L25.210,27.009 L25.210,26.110 C25.210,23.624 27.224,21.610 29.710,21.610 C32.195,21.610 34.210,23.624 34.210,26.110 L34.210,27.009 L34.750,27.009 C35.446,27.009 36.010,27.468 36.010,28.033 L36.021,34.162 C36.021,34.753 35.610,35.035 34.961,35.150 ZM32.410,26.110 C32.410,24.619 31.201,23.410 29.710,23.410 C28.219,23.410 27.010,24.619 27.010,26.110 L27.010,27.009 L32.410,27.009 L32.410,26.110 ZM21.610,19.832 C17.645,19.832 14.430,16.603 14.430,12.620 C14.430,8.637 17.645,5.408 21.610,5.408 C25.575,5.408 28.789,8.637 28.789,12.620 C28.789,16.603 25.575,19.832 21.610,19.832 ZM12.635,12.623 C12.635,13.136 12.688,13.636 12.770,14.125 C12.143,14.305 11.494,14.432 10.810,14.432 C6.845,14.432 3.630,11.203 3.630,7.220 C3.630,3.237 6.845,0.008 10.810,0.008 C13.859,0.008 16.448,1.926 17.489,4.620 C14.607,6.120 12.635,9.137 12.635,12.623 ZM13.373,16.200 C13.993,17.637 14.987,18.863 16.214,19.796 L16.010,19.796 C13.031,19.796 9.668,23.126 9.102,27.010 L2.410,27.010 C1.084,27.010 0.010,25.800 0.010,24.307 L0.010,22.441 C0.018,19.188 3.216,16.200 6.010,16.200 L13.373,16.200 ZM16.810,21.600 L25.322,21.600 C24.242,22.650 23.561,24.088 23.453,25.686 C22.358,26.303 21.610,27.463 21.610,28.810 L21.610,32.410 L13.210,32.410 C11.884,32.410 10.810,31.200 10.810,29.707 L10.810,27.841 C10.818,24.588 14.016,21.600 16.810,21.600 Z" class="cls-1"/>
</svg>
