<svg xmlns="http://www.w3.org/2000/svg" xmlns:xlink="http://www.w3.org/1999/xlink" preserveAspectRatio="xMidYMid" width="15.295" height="14.42" viewBox="0 0 30.59 28.84">
  <defs>
    <style>
      .cls-1 {
        fill: #2a2a2a;
        fill-rule: evenodd;
      }
    </style>
  </defs>
  <path d="M28.881,10.361 L18.983,20.647 L18.982,20.647 L13.369,26.481 C11.902,28.007 9.950,28.847 7.873,28.847 C5.797,28.847 3.845,28.007 2.376,26.481 L2.275,26.376 C0.808,24.850 -0.001,22.822 -0.001,20.663 C-0.001,18.507 0.808,16.477 2.275,14.952 L15.995,0.691 L16.989,1.726 L3.269,15.984 C0.788,18.565 0.788,22.764 3.269,25.344 L3.370,25.448 C4.574,26.700 6.173,27.388 7.873,27.388 C9.575,27.388 11.174,26.700 12.377,25.448 L17.989,19.615 L17.989,19.615 L20.553,16.949 L26.095,11.189 L26.096,11.190 L27.886,9.329 C28.718,8.466 29.175,7.317 29.175,6.097 C29.175,4.876 28.718,3.727 27.886,2.864 L27.814,2.788 C26.099,1.007 23.309,1.006 21.595,2.788 L7.055,17.898 L6.063,16.865 L20.601,1.756 C22.863,-0.595 26.544,-0.595 28.807,1.756 L28.881,1.832 C29.976,2.972 30.581,4.486 30.581,6.097 C30.581,7.707 29.976,9.223 28.881,10.361 Z" class="cls-1"/>
</svg>
