<svg xmlns="http://www.w3.org/2000/svg" xmlns:xlink="http://www.w3.org/1999/xlink" preserveAspectRatio="xMidYMid" width="18" height="18.016" viewBox="0 0 36 36.031">
  <defs>
    <style>
      .cls-1 {
        fill: #2a2a2a;
        fill-rule: evenodd;
      }
    </style>
  </defs>
  <path d="M29.700,12.630 C27.538,12.630 25.633,11.541 24.496,9.883 L12.091,16.423 C12.422,17.190 12.609,18.033 12.609,18.920 C12.609,19.655 12.459,20.350 12.229,21.005 L24.333,26.440 C25.442,24.630 27.421,23.410 29.700,23.410 C33.184,23.410 36.009,26.236 36.009,29.720 C36.009,33.205 33.184,36.030 29.700,36.030 C26.215,36.030 23.389,33.205 23.389,29.720 C23.389,29.155 23.488,28.617 23.627,28.096 L11.401,22.607 C10.254,24.190 8.403,25.230 6.300,25.230 C2.815,25.230 -0.011,22.405 -0.011,18.920 C-0.011,15.436 2.815,12.611 6.300,12.611 C8.248,12.611 9.969,13.513 11.126,14.901 L23.725,8.259 C23.525,7.644 23.389,7.001 23.389,6.320 C23.389,2.836 26.215,0.010 29.700,0.010 C33.184,0.010 36.009,2.836 36.009,6.320 C36.009,9.805 33.184,12.630 29.700,12.630 ZM29.733,34.254 C32.218,34.254 34.233,32.239 34.233,29.754 C34.233,27.269 32.218,25.254 29.733,25.254 C27.247,25.254 25.233,27.269 25.233,29.754 C25.233,32.239 27.247,34.254 29.733,34.254 ZM6.333,14.454 C3.847,14.454 1.833,16.469 1.833,18.954 C1.833,21.439 3.847,23.454 6.333,23.454 C8.818,23.454 10.833,21.439 10.833,18.954 C10.833,16.469 8.818,14.454 6.333,14.454 ZM29.733,1.854 C27.247,1.854 25.233,3.869 25.233,6.354 C25.233,8.839 27.247,10.854 29.733,10.854 C32.218,10.854 34.233,8.839 34.233,6.354 C34.233,3.869 32.218,1.854 29.733,1.854 Z" class="cls-1"/>
</svg>
