<svg xmlns="http://www.w3.org/2000/svg" xmlns:xlink="http://www.w3.org/1999/xlink" preserveAspectRatio="xMidYMid" width="18" height="14.391" viewBox="0 0 36 28.782">
  <defs>
    <style>
      .cls-1 {
        fill: #2a2a2a;
        fill-rule: evenodd;
      }
    </style>
  </defs>
  <path d="M34.200,28.794 L1.800,28.794 C0.806,28.794 -0.000,27.988 -0.000,26.994 L-0.000,26.426 L-0.000,24.556 L-0.000,4.232 L-0.000,2.362 L-0.000,1.794 C-0.000,0.800 0.806,-0.006 1.800,-0.006 L34.200,-0.006 C35.194,-0.006 36.000,0.800 36.000,1.794 L36.000,2.362 L36.000,4.232 L36.000,24.556 L36.000,26.426 L36.000,26.994 C36.000,27.988 35.194,28.794 34.200,28.794 ZM34.200,1.794 L1.800,1.794 L1.800,2.856 L18.000,15.556 L34.200,2.856 L34.200,1.794 ZM34.200,5.643 L18.447,17.992 L17.553,17.992 L1.800,5.643 L1.800,23.145 L10.666,16.194 L12.444,17.587 L1.800,25.932 L1.800,26.994 L34.200,26.994 L34.200,25.932 L23.556,17.587 L25.333,16.194 L34.200,23.145 L34.200,5.643 Z" class="cls-1"/>
</svg>
