<svg xmlns="http://www.w3.org/2000/svg" width="20" height="20"><path fill-rule="evenodd" fill="#2a2a2a" d="M17.777 20H2.222A2.222 2.222 0 0 1 0 17.777V2.222C0 .995.994 0 2.222 0h15.555c1.228 0 2.222.995 2.222 2.222v15.555A2.222 2.222 0 0 1 17.777 20zm.229-18.007H1.993v16.013h16.013V1.993zM8.141 9.598l7.143 7.409H2.993v-3.844L6.43 9.598a1.18 1.18 0 0 1 1.711 0zm6.036-1.243a1.17 1.17 0 0 1 1.708 0l1.121 1.175v7.296l-5.455-5.718 2.626-2.753zm-8.18-.357a2.003 2.003 0 1 1 .002-4.006 2.003 2.003 0 0 1-.002 4.006z"/></svg>
