<svg xmlns="http://www.w3.org/2000/svg" xmlns:xlink="http://www.w3.org/1999/xlink" preserveAspectRatio="xMidYMid" width="14.406" height="18" viewBox="0 0 28.812 36">
  <defs>
    <style>
      .cls-1 {
        fill: #2a2a2a;
        fill-rule: evenodd;
      }
    </style>
  </defs>
  <path d="M27.006,32.388 L18.006,32.388 C18.006,34.376 16.394,35.988 14.406,35.988 C12.418,35.988 10.806,34.376 10.806,32.388 L1.806,32.388 C0.812,32.388 0.006,31.582 0.006,30.588 L0.033,25.531 L1.806,23.759 L1.806,16.188 C1.806,10.489 5.614,5.730 10.806,4.173 L10.806,3.588 C10.806,1.599 12.418,-0.012 14.406,-0.012 C16.394,-0.012 18.006,1.599 18.006,3.588 L18.006,4.173 C23.198,5.730 27.006,10.489 27.006,16.188 L27.006,23.759 L28.779,25.531 L28.806,30.588 C28.806,31.582 28.000,32.388 27.006,32.388 ZM14.406,34.188 C15.400,34.188 16.206,33.382 16.206,32.388 L12.606,32.388 C12.606,33.382 13.412,34.188 14.406,34.188 ZM14.406,1.788 C13.412,1.788 12.606,2.594 12.606,3.588 L16.206,3.588 C16.206,2.594 15.400,1.788 14.406,1.788 ZM27.006,26.617 L25.233,24.844 L25.206,16.188 C25.206,10.223 20.371,5.388 14.406,5.388 C8.441,5.388 3.606,10.223 3.606,16.188 L3.579,24.844 L1.806,26.617 L1.806,30.588 L10.806,30.588 L14.406,30.588 L18.006,30.588 L27.006,30.588 L27.006,26.617 Z" class="cls-1"/>
</svg>
