<svg xmlns="http://www.w3.org/2000/svg" xmlns:xlink="http://www.w3.org/1999/xlink" preserveAspectRatio="xMidYMid" width="18" height="17.094" viewBox="0 0 36 34.188">
  <defs>
    <style>
      .cls-1 {
        fill: #007fe0;
        fill-rule: evenodd;
      }
    </style>
  </defs>
  <path d="M32.400,25.187 L21.591,25.187 L12.175,33.864 C11.969,34.102 10.389,34.190 9.533,34.190 C8.982,34.190 9.000,33.424 9.000,32.387 L9.000,25.187 L3.600,25.187 C1.611,25.187 -0.000,23.576 -0.000,21.587 L-0.000,3.587 C-0.000,1.599 1.611,-0.013 3.600,-0.013 L32.400,-0.013 C34.388,-0.013 35.999,1.599 35.999,3.587 L35.999,21.587 C35.999,23.576 34.388,25.187 32.400,25.187 ZM34.200,3.588 C34.200,2.594 33.394,1.788 32.400,1.788 L3.600,1.788 C2.606,1.788 1.800,2.594 1.800,3.588 L1.800,21.588 C1.800,22.582 2.606,23.388 3.600,23.388 L10.800,23.388 L10.800,32.388 L20.618,23.388 L32.400,23.388 C33.394,23.388 34.200,22.582 34.200,21.588 L34.200,3.588 Z" class="cls-1"/>
</svg>
