<svg xmlns="http://www.w3.org/2000/svg" xmlns:xlink="http://www.w3.org/1999/xlink" preserveAspectRatio="xMidYMid" width="9.891" height="11.688" viewBox="0 0 19.782 23.376">
  <defs>
    <style>
      .cls-1 {
        fill: #2a2a2a;
        fill-rule: evenodd;
      }
    </style>
  </defs>
  <path d="M18.322,22.052 C15.223,22.733 13.048,23.390 9.888,23.390 C6.727,23.390 4.551,22.733 1.453,22.052 C0.545,21.874 -0.012,20.562 -0.012,19.644 L-0.012,9.468 C-0.012,8.195 0.968,7.164 2.178,7.164 L3.570,7.164 L3.570,6.595 C3.570,2.946 6.399,-0.012 9.888,-0.012 C13.377,-0.012 16.206,2.946 16.206,6.595 L16.206,7.164 L17.597,7.164 C18.807,7.164 19.787,8.195 19.787,9.468 L19.787,19.644 C19.787,20.562 19.229,21.874 18.322,22.052 ZM14.378,6.838 C14.378,4.043 12.368,1.778 9.888,1.778 C7.408,1.778 5.398,4.043 5.398,6.838 L5.398,7.164 L14.378,7.164 L14.378,6.838 ZM17.008,8.969 L2.831,8.969 C2.251,8.969 1.781,9.502 1.781,10.160 L1.806,19.220 C1.806,19.866 2.145,20.292 2.905,20.427 C5.500,20.943 6.302,21.579 9.878,21.579 C13.352,21.579 14.257,20.943 16.852,20.427 C17.612,20.292 17.951,19.866 17.951,19.220 L17.976,10.160 C17.976,9.502 17.542,8.969 17.008,8.969 ZM10.768,16.042 L10.768,18.687 C10.768,19.284 10.374,19.767 9.888,19.767 C9.402,19.767 9.008,19.284 9.008,18.687 L9.008,16.042 C7.947,15.676 7.180,14.679 7.180,13.494 C7.180,12.000 8.392,10.788 9.888,10.788 C11.383,10.788 12.596,12.000 12.596,13.494 C12.596,14.679 11.829,15.675 10.768,16.042 Z" class="cls-1"/>
</svg>
