<svg xmlns="http://www.w3.org/2000/svg" xmlns:xlink="http://www.w3.org/1999/xlink" preserveAspectRatio="xMidYMid" width="11.703" height="11.703" viewBox="0 0 23.406 23.406">
  <defs>
    <style>
      .cls-1 {
        fill: #007fe0;
        fill-rule: evenodd;
      }
    </style>
  </defs>
  <path d="M21.715,-0.009 L1.684,-0.009 C0.749,-0.009 -0.004,0.744 -0.004,1.679 L-0.004,16.646 C-0.004,17.581 0.864,17.993 1.799,17.993 L5.399,17.993 L5.386,22.356 C5.386,23.133 5.898,23.396 6.481,23.396 C7.043,23.396 7.177,23.330 7.331,23.151 L11.699,17.975 L21.599,17.993 C22.535,17.993 23.402,17.581 23.402,16.646 L23.402,1.679 C23.402,0.744 22.650,-0.009 21.715,-0.009 L21.715,-0.009 L21.715,-0.009 ZM21.607,15.364 C21.607,15.818 21.233,16.182 20.770,16.182 L11.316,16.170 C10.858,16.170 10.307,16.413 9.622,17.163 L7.199,19.793 L7.199,17.993 C7.199,16.795 5.867,16.193 5.399,16.193 L2.628,16.182 C2.165,16.182 1.792,15.818 1.792,15.364 L1.792,2.605 C1.792,2.152 2.165,1.787 2.628,1.787 L20.770,1.787 C21.233,1.787 21.607,2.152 21.607,2.605 L21.607,15.364 L21.607,15.364 L21.607,15.364 Z" class="cls-1"/>
</svg>
