<svg 
 xmlns="http://www.w3.org/2000/svg"
 xmlns:xlink="http://www.w3.org/1999/xlink"
 width="18px" height="18px">
<path fill-rule="evenodd"  fill="rgb(62, 62, 62)"
 d="M17.099,13.499 L17.101,17.251 C17.101,17.665 16.777,17.999 16.378,17.999 L13.500,17.999 L13.500,14.399 L10.800,14.399 L10.800,17.999 L7.937,17.999 C7.527,17.999 7.195,17.665 7.195,17.251 L7.200,13.499 L6.300,13.499 L12.148,7.205 L18.000,13.499 L17.099,13.499 ZM10.800,7.199 L7.200,10.799 L7.200,7.199 L4.500,7.199 L4.500,10.799 L1.637,10.799 C1.227,10.799 0.895,10.464 0.895,10.051 L0.900,6.300 L-0.000,6.300 L5.848,0.004 L11.700,6.300 L10.800,6.300 L10.800,7.199 Z"/>
</svg>