<svg xmlns="http://www.w3.org/2000/svg" xmlns:xlink="http://www.w3.org/1999/xlink" preserveAspectRatio="xMidYMid" width="18" height="18.016" viewBox="0 0 36 36.031">
  <defs>
    <style>
      .cls-1 {
        fill: #fcda00;
        fill-rule: evenodd;
      }
    </style>
  </defs>
  <path d="M29.700,12.631 C27.538,12.631 25.633,11.541 24.496,9.883 L12.091,16.424 C12.422,17.190 12.609,18.033 12.609,18.921 C12.609,19.655 12.459,20.350 12.229,21.006 L24.333,26.440 C25.442,24.630 27.421,23.411 29.700,23.411 C33.184,23.411 36.009,26.236 36.009,29.721 C36.009,33.205 33.184,36.031 29.700,36.031 C26.215,36.031 23.389,33.205 23.389,29.721 C23.389,29.155 23.488,28.617 23.627,28.096 L11.401,22.607 C10.254,24.190 8.403,25.231 6.300,25.231 C2.815,25.231 -0.011,22.405 -0.011,18.921 C-0.011,15.436 2.815,12.611 6.300,12.611 C8.248,12.611 9.969,13.513 11.126,14.901 L23.725,8.259 C23.525,7.645 23.389,7.001 23.389,6.321 C23.389,2.836 26.215,0.011 29.700,0.011 C33.184,0.011 36.009,2.836 36.009,6.321 C36.009,9.805 33.184,12.631 29.700,12.631 Z" class="cls-1"/>
</svg>
