<svg xmlns="http://www.w3.org/2000/svg" xmlns:xlink="http://www.w3.org/1999/xlink" preserveAspectRatio="xMidYMid" width="18" height="18" viewBox="0 0 36 36">
  <defs>
    <style>
      .cls-1 {
        fill: #fff;
        fill-rule: evenodd;
      }
    </style>
  </defs>
  <path d="M36.000,17.988 C36.000,8.047 27.941,-0.012 18.000,-0.012 C8.059,-0.012 -0.000,8.047 -0.000,17.988 C-0.000,27.929 8.059,35.988 18.000,35.988 C21.627,35.988 24.998,34.905 27.824,33.059 L27.234,31.289 C24.613,33.112 21.434,34.188 18.000,34.188 C9.053,34.188 1.800,26.935 1.800,17.988 C1.800,9.041 9.053,1.788 18.000,1.788 C26.947,1.788 34.200,9.041 34.200,17.988 C34.200,23.163 30.785,25.188 27.000,25.188 C25.837,25.188 25.279,24.674 24.776,23.910 C24.274,23.146 24.023,22.008 24.023,20.494 L24.023,19.839 L24.496,9.711 C22.371,9.115 20.319,8.816 18.338,8.816 C15.552,8.816 13.295,9.751 11.565,11.621 C9.835,13.491 8.970,15.896 8.970,18.835 C8.970,21.367 9.551,23.336 10.714,24.740 C11.877,26.144 13.521,26.846 15.646,26.846 C17.196,26.846 18.553,26.479 19.716,25.744 C20.879,25.009 21.769,23.914 22.386,22.459 L22.472,22.459 C22.601,23.812 23.064,24.882 23.861,25.668 C24.658,26.453 25.610,26.988 27.000,26.988 C31.025,26.988 36.000,24.681 36.000,17.988 ZM13.083,12.800 C14.346,11.308 16.048,10.562 18.187,10.562 C19.823,10.562 21.209,10.759 22.343,11.152 L21.998,17.504 C21.740,22.539 19.780,25.056 16.120,25.056 C14.411,25.056 13.162,24.532 12.373,23.485 C11.583,22.437 11.188,20.873 11.188,18.792 C11.188,16.289 11.820,14.292 13.083,12.800 Z" class="cls-1"/>
</svg>
