<svg xmlns="http://www.w3.org/2000/svg" xmlns:xlink="http://www.w3.org/1999/xlink" preserveAspectRatio="xMidYMid" width="14.406" height="18" viewBox="0 0 28.812 36">
  <defs>
    <style>
      .cls-1 {
        fill: #2a2a2a;
        fill-rule: evenodd;
      }
    </style>
  </defs>
  <path d="M27.006,35.988 L1.806,35.988 C0.812,35.988 0.006,35.182 0.006,34.188 L0.006,1.788 C0.006,0.794 0.812,-0.012 1.806,-0.012 L20.715,0.002 L28.792,8.078 L28.806,34.188 C28.806,35.182 28.000,35.988 27.006,35.988 ZM19.806,1.788 L19.806,8.988 L27.006,8.988 L19.806,1.788 ZM27.006,10.788 L18.006,10.788 L18.006,1.788 L1.806,1.788 L1.806,34.188 L27.006,34.188 L27.006,10.788 ZM14.406,8.988 L5.406,8.988 L5.406,7.188 L14.406,7.188 L14.406,8.988 ZM23.406,14.388 L5.406,14.388 L5.406,12.588 L23.406,12.588 L23.406,14.388 ZM23.406,19.788 L5.406,19.788 L5.406,17.988 L23.406,17.988 L23.406,19.788 ZM23.406,25.188 L5.406,25.188 L5.406,23.388 L23.406,23.388 L23.406,25.188 ZM23.406,30.588 L5.406,30.588 L5.406,28.788 L23.406,28.788 L23.406,30.588 Z" class="cls-1"/>
</svg>
