<svg xmlns="http://www.w3.org/2000/svg" xmlns:xlink="http://www.w3.org/1999/xlink" preserveAspectRatio="xMidYMid" width="18" height="18" viewBox="0 0 36 36">
  <defs>
    <style>
      .cls-1 {
        fill: #fff;
        fill-rule: evenodd;
      }
    </style>
  </defs>
  <path d="M33.389,31.040 L5.433,35.943 C3.717,36.244 2.074,35.146 1.762,33.489 L0.069,24.492 C-0.243,22.836 0.895,21.250 2.611,20.949 L30.567,16.045 C32.283,15.744 33.926,16.843 34.238,18.499 L35.931,27.496 C36.243,29.152 35.105,30.739 33.389,31.040 ZM27.027,14.859 L15.918,6.878 C15.456,7.093 14.947,7.221 14.404,7.221 C14.025,7.221 13.667,7.146 13.323,7.038 L5.374,18.657 L2.583,19.147 L11.642,5.907 C11.123,5.282 10.799,4.491 10.799,3.615 C10.799,1.624 12.413,0.010 14.404,0.010 C16.396,0.010 18.010,1.624 18.010,3.615 C18.010,4.338 17.792,5.008 17.426,5.572 L29.543,14.418 L27.027,14.859 Z" class="cls-1"/>
</svg>
