<svg xmlns="http://www.w3.org/2000/svg" xmlns:xlink="http://www.w3.org/1999/xlink" preserveAspectRatio="xMidYMid" width="17.44" height="18" viewBox="0 0 34.88 36">
  <defs>
    <style>
      .cls-1 {
        fill: #fcda00;
        fill-rule: evenodd;
      }
    </style>
  </defs>
  <path d="M29.912,16.484 C29.973,16.983 30.027,17.484 30.027,17.999 C30.027,18.515 29.973,19.016 29.912,19.516 L34.890,23.775 L31.166,30.225 L24.978,28.039 C24.169,28.647 23.302,29.182 22.359,29.583 L21.163,35.999 L13.715,35.999 L12.521,29.583 C11.577,29.183 10.710,28.647 9.901,28.039 L3.713,30.224 L-0.011,23.774 L4.967,19.516 C4.906,19.017 4.852,18.515 4.852,17.999 C4.852,17.484 4.906,16.983 4.967,16.483 L-0.011,12.225 L3.713,5.775 L9.900,7.960 C10.709,7.351 11.577,6.816 12.521,6.415 L13.715,-0.001 L21.163,-0.001 L22.359,6.415 C23.302,6.816 24.170,7.352 24.979,7.960 L31.166,5.774 L34.890,12.224 L29.912,16.484 ZM17.439,12.616 C14.448,12.616 12.022,15.026 12.022,17.999 C12.022,20.972 14.448,23.382 17.439,23.382 C20.431,23.382 22.856,20.972 22.856,17.999 C22.856,15.026 20.431,12.616 17.439,12.616 Z" class="cls-1"/>
</svg>
