<svg xmlns="http://www.w3.org/2000/svg" xmlns:xlink="http://www.w3.org/1999/xlink" preserveAspectRatio="xMidYMid" width="18" height="18" viewBox="0 0 36 36">
  <defs>
    <style>
      .cls-1 {
        fill: #fff;
        fill-rule: evenodd;
      }
    </style>
  </defs>
  <path d="M-0.010,36.000 L-0.010,28.800 C-0.010,23.829 4.019,19.800 8.990,19.800 L12.059,19.800 C9.125,17.871 7.185,14.556 7.185,10.786 C7.185,4.827 12.022,-0.003 17.989,-0.003 C23.956,-0.003 28.793,4.827 28.793,10.786 C28.793,14.556 26.854,17.871 23.919,19.800 L26.990,19.800 C31.960,19.800 35.990,23.829 35.990,28.800 L35.990,36.000 L-0.010,36.000 ZM26.998,10.785 C26.998,5.823 22.965,1.800 17.989,1.800 C13.014,1.800 8.980,5.823 8.980,10.785 C8.980,15.748 13.014,19.771 17.989,19.771 C22.965,19.771 26.998,15.748 26.998,10.785 ZM34.190,28.800 C34.190,24.823 30.966,21.600 26.990,21.600 L8.990,21.600 C5.013,21.600 1.790,24.823 1.790,28.800 L1.790,34.200 L34.190,34.200 L34.190,28.800 Z" class="cls-1"/>
</svg>
