<svg
 xmlns="http://www.w3.org/2000/svg"
 xmlns:xlink="http://www.w3.org/1999/xlink"
 width="18px" height="14px">
<path fill-rule="evenodd"  fill="#333"
 d="M18.000,12.250 L18.000,11.939 L12.666,7.875 L11.778,8.552 L17.758,13.110 C17.448,13.639 16.870,14.000 16.200,14.000 L1.800,14.000 C1.129,14.000 0.551,13.639 0.241,13.110 L6.222,8.552 L5.333,7.875 L-0.000,11.939 L-0.000,2.060 L8.776,8.749 L9.223,8.749 L18.000,2.060 L18.000,1.749 C18.000,1.749 18.000,1.749 18.000,1.750 L18.000,12.250 C18.000,12.250 18.000,12.250 18.000,12.250 ZM0.241,0.889 C0.551,0.360 1.129,-0.000 1.800,-0.000 L16.200,-0.000 C16.870,-0.000 17.448,0.360 17.758,0.889 L9.000,7.565 L0.241,0.889 Z"/>
</svg>
