<svg xmlns="http://www.w3.org/2000/svg" xmlns:xlink="http://www.w3.org/1999/xlink" preserveAspectRatio="xMidYMid" width="14.39" height="14.39" viewBox="0 0 28.78 28.78">
  <defs>
    <style>
      .cls-1 {
        fill: #2a2a2a;
        fill-rule: evenodd;
      }
    </style>
  </defs>
  <path d="M14.390,28.792 C6.449,28.792 -0.012,22.331 -0.012,14.390 C-0.012,6.449 6.449,-0.012 14.390,-0.012 C22.331,-0.012 28.792,6.449 28.792,14.390 C28.792,22.331 22.331,28.792 14.390,28.792 ZM14.390,1.303 C7.173,1.303 1.303,7.173 1.303,14.390 C1.303,21.607 7.173,27.477 14.390,27.477 C21.607,27.477 27.477,21.607 27.477,14.390 C27.477,7.173 21.607,1.303 14.390,1.303 ZM20.047,13.361 C19.195,13.361 18.505,12.670 18.505,11.818 C18.505,10.965 19.195,10.274 20.047,10.274 C20.900,10.274 21.591,10.965 21.591,11.818 C21.591,12.670 20.900,13.361 20.047,13.361 ZM18.416,19.734 C17.630,21.019 16.093,21.817 14.404,21.817 C12.716,21.817 11.180,21.019 10.394,19.734 C10.160,19.354 10.281,18.857 10.661,18.623 C11.043,18.391 11.540,18.511 11.774,18.890 C12.259,19.687 13.293,20.202 14.404,20.202 C15.517,20.202 16.551,19.687 17.037,18.890 C17.270,18.511 17.769,18.391 18.149,18.623 C18.530,18.857 18.650,19.354 18.416,19.734 ZM8.732,13.361 C7.880,13.361 7.189,12.670 7.189,11.818 C7.189,10.965 7.880,10.274 8.732,10.274 C9.584,10.274 10.274,10.965 10.274,11.818 C10.274,12.670 9.584,13.361 8.732,13.361 Z" class="cls-1"/>
</svg>
