<?xml version="1.0" encoding="UTF-8"?>
<svg width="2653px" height="231px" viewBox="0 0 2653 231" version="1.1" xmlns="http://www.w3.org/2000/svg" xmlns:xlink="http://www.w3.org/1999/xlink">
    <!-- Generator: Sketch 42 (36781) - http://www.bohemiancoding.com/sketch -->
    <title>demo-logo-full</title>
    <desc>Created with Sketch.</desc>
    <defs></defs>
    <g id="Page-1" stroke="none" stroke-width="1" fill="none" fill-rule="evenodd">
        <g id="demo-logo-full">
            <g id="-e-demo" transform="translate(1951.000000, 0.000000)" fill="#FFFFFF">
                <g id="Layer_1">
                    <path d="M95.8,231 L0,231 L0,0 L95.8,0 C126.8,0 151.9,25.2 151.9,56.2 L151.9,174.7 C151.9,205.8 126.8,231 95.8,231 Z M99.8,51.2 C99.8,37.4 88.7,26.2 74.9,26.1 L49.9,26.1 L49.9,204.9 L74.9,204.9 C88.6,204.8 99.8,193.6 99.8,179.8 L99.8,51.2 L99.8,51.2 Z" id="Shape"></path>
                    <polygon id="Shape" points="307.9 204.9 307.9 231 179.9 231 179.9 0 307.9 0 307.9 26.1 229.9 26.1 229.9 102.4 281.9 102.4 281.9 128.5 229.9 128.5 229.9 204.8 307.9 204.8"></polygon>
                    <polygon id="Shape" points="497.3 231 497.3 111.2 430.1 227 427.5 227 360.3 111.2 360.3 231 334.3 231 334.3 0 352.3 0 428.8 131.7 505.4 0 523.4 0 523.4 231"></polygon>
                    <path d="M645.9,231 L605.8,231 C574.8,231 549.7,205.8 549.7,174.8 L549.7,56.2 C549.7,25.1 574.8,0 605.8,0 L645.9,0 C676.9,0 702,25.2 702,56.2 L702,174.7 C702,205.8 676.9,231 645.9,231 Z M649.9,51.2 C649.9,37.3 638.7,26.1 624.9,26.1 C611.1,26.1 599.9,37.3 599.9,51.2 L599.9,179.8 C599.9,193.7 611.1,204.9 624.9,204.9 C638.7,204.9 649.9,193.7 649.9,179.8 L649.9,51.2 Z" id="Shape"></path>
                </g>
            </g>
            <g id="-e-logo">
                <polygon id="XMLID_38_" fill="#FFFFFF" points="110.2 0 150.3 0 40.1 231 0 231"></polygon>
                <polygon id="XMLID_36_" fill="#FFFFFF" points="196.3 0 236.4 0 126.2 231 86.1 231"></polygon>
                <polygon id="XMLID_34_" fill="#FFFFFF" points="334.5 26.1 334.5 102.4 386.6 102.4 386.6 128.5 334.5 128.5 334.5 231 284.4 231 284.4 0 412.6 0 412.6 26.1"></polygon>
                <path d="M534.9,231 L494.8,231 C463.8,231 438.7,205.8 438.7,174.8 L438.7,56.2 C438.7,25.1 463.8,0 494.8,0 L534.9,0 C565.9,0 591,25.2 591,56.2 L591,174.7 C591,205.8 565.8,231 534.9,231 Z M538.9,51.2 C538.9,37.3 527.7,26.1 513.9,26.1 C500.1,26.1 488.9,37.3 488.9,51.2 L488.9,179.8 C488.9,193.7 500.1,204.9 513.9,204.9 C527.7,204.9 538.9,193.7 538.9,179.8 L538.9,51.2 Z" id="XMLID_29_" fill="#FFFFFF"></path>
                <path d="M715.2,231 L675.1,231 C644.1,231 619,205.8 619,174.8 L619,56.2 C619,25.2 644.1,0 675.1,0 L715.2,0 C746.2,0 771.3,25.2 771.3,56.2 L771.3,174.7 C771.3,205.8 746.1,231 715.2,231 Z M719.2,51.2 C719.2,37.3 708,26.1 694.2,26.1 C680.4,26.1 669.2,37.3 669.2,51.2 L669.2,179.8 C669.2,193.7 680.4,204.9 694.2,204.9 C708,204.9 719.2,193.7 719.2,179.8 L719.2,51.2 Z" id="XMLID_26_" fill="#FFFFFF"></path>
                <polygon id="XMLID_32_" fill="#FFFFFF" points="891.4 26.1 891.4 231 841.3 231 841.3 26.1 791.2 26.1 791.2 0 941.4 0 941.4 26.1"></polygon>
                <path d="M1057.7,128.6 L1011.6,128.6 L1011.6,231 L961.5,231 L961.5,0 L1057.7,0 C1088.7,0 1113.8,25.2 1113.8,56.2 L1113.8,72.3 C1113.8,103.4 1088.7,128.6 1057.7,128.6 Z M1061.7,51.2 C1061.7,37.3 1049.5,26.1 1035.7,26.1 L1011.7,26.1 L1011.7,102.4 L1035.7,102.4 C1049.5,102.4 1061.7,91.2 1061.7,77.3 L1061.7,51.2 Z" id="XMLID_49_" fill="#FFDE00"></path>
                <path d="M1260,231 L1260,154.7 C1260,140.8 1247.8,128.6 1234,128.6 L1210,128.6 L1210,231 L1159.9,231 L1159.9,0 L1256.1,0 C1287.1,0 1312.2,25.2 1312.2,56.2 L1312.2,64.2 C1312.2,95.3 1290.3,114.4 1260.1,114.4 L1286.1,114.4 C1299.9,114.4 1312.1,125.6 1312.1,139.5 L1312.1,231 L1260,231 Z M1260,51.2 C1260,37.3 1247.8,26.1 1234,26.1 L1210,26.1 L1210,102.4 L1234,102.4 C1247.8,102.4 1260,91.2 1260,77.3 L1260,51.2 Z" id="XMLID_46_" fill="#FFDE00"></path>
                <polygon id="XMLID_44_" fill="#FFDE00" points="1432.3 0 1432.3 231 1382.2 231 1382.2 0"></polygon>
                <polygon id="XMLID_42_" fill="#FFDE00" points="1668.7 231 1528.5 103.2 1528.5 231 1502.5 231 1502.5 0 1514.5 0 1654.7 127.8 1654.7 0 1680.7 0 1680.7 231"></polygon>
                <polygon id="XMLID_40_" fill="#FFDE00" points="1800.9 26.1 1800.9 231 1750.8 231 1750.8 26.1 1700.7 26.1 1700.7 0 1851 0 1851 26.1"></polygon>
            </g>
        </g>
    </g>
</svg>